<svg xmlns="http://www.w3.org/2000/svg" width="50" height="50" viewBox="0 0 50 50">
    <g fill="#F15022" fill-rule="evenodd">
        <circle cx="25" cy="25" r="25" fill-opacity=".06"/>
        <path d="M20.365 34.35l-1.213-1.104C14.844 29.339 12 26.763 12 23.6 12 21.024 14.024 19 16.6 19a5.01 5.01 0 0 1 3.765 1.748A5.01 5.01 0 0 1 24.13 19c2.577 0 4.601 2.024 4.601 4.6 0 3.163-2.844 5.74-7.152 9.654l-1.213 1.096z" opacity=".5"/>
        <path d="M28 35.35l-1.45-1.32C21.4 29.36 18 26.28 18 22.5c0-3.08 2.42-5.5 5.5-5.5 1.74 0 3.41.81 4.5 2.09 1.09-1.28 2.76-2.09 4.5-2.09 3.08 0 5.5 2.42 5.5 5.5 0 3.78-3.4 6.86-8.55 11.54L28 35.35z"/>
    </g>
</svg>