<svg xmlns="http://www.w3.org/2000/svg" width="50" height="50" viewBox="0 0 50 50">
    <g fill="#9728F5" fill-rule="evenodd">
        <circle cx="25" cy="25" r="25" fill-opacity=".06"/>
        <g fill-rule="nonzero">
            <path d="M25 38c-7.18 0-13-5.82-13-13s5.82-13 13-13 13 5.82 13 13-5.82 13-13 13zm0-4.469a8.531 8.531 0 1 0 0-17.062 8.531 8.531 0 0 0 0 17.062zm0-3.656a4.875 4.875 0 1 1 0-9.75 4.875 4.875 0 0 1 0 9.75z" opacity=".4"/>
            <path d="M30.558 21.71l-3.625 3.624a1.229 1.229 0 0 1-1.737-1.737l3.782-3.782-.29-1.395c-.093-.444.093-1.065.41-1.38l4.92-4.92c.318-.32.652-.217.744.226l.63 3.031 3.032.631c.444.092.543.428.227.744l-4.92 4.92c-.32.32-.939.502-1.382.41l-1.791-.373z"/>
        </g>
    </g>
</svg>